<?xml version="1.0" standalone="no"?>
<!DOCTYPE svg PUBLIC "-//W3C//DTD SVG 20010904//EN"
 "http://www.w3.org/TR/2001/REC-SVG-20010904/DTD/svg10.dtd">
<svg version="1.0" xmlns="http://www.w3.org/2000/svg"
 width="54.000000pt" height="54.000000pt" viewBox="0 0 54.000000 54.000000"
 preserveAspectRatio="xMidYMid meet">

<g transform="translate(0.000000,54.000000) scale(0.100000,-0.100000)"
fill="#000000" stroke="none">
<path d="M339 458 c-17 -24 -33 -49 -36 -56 -5 -12 44 -92 56 -92 6 1 123 164
129 181 2 5 -24 9 -57 9 -60 0 -61 -1 -92 -42z"/>
<path d="M72 458 c76 -101 128 -177 128 -188 0 -10 -86 -134 -143 -208 -7 -9
5 -12 54 -12 l64 1 77 109 78 110 -78 110 -77 109 -64 1 -63 0 24 -32z"/>
<path d="M326 192 c-14 -21 -26 -42 -26 -46 0 -5 16 -30 36 -57 l36 -49 59 0
c32 0 59 3 59 6 0 10 -124 183 -131 184 -4 0 -18 -17 -33 -38z"/>
</g>
</svg>
